<svg xmlns="http://www.w3.org/2000/svg" fill-rule="evenodd" stroke-linejoin="round" stroke-miterlimit="2" clip-rule="evenodd" viewBox="0 0 101 110">
  <defs/>
  <g transform="matrix(1 0 0 1.99699 -2358 -517.29)">
    <g id="a_square">
      <path fill="#f9f9fc" fill-rule="nonzero" d="M2551.27 1036.89l.01-2.37c0-.14 0-.18.02-.32.14-1.14 1.1-2.14 2.27-2.32.3-.04.37-.02.47-.02.14.01.18.01.32.03 1.14.17 2.11 1.15 2.25 2.33.01.14.01.18.01.32l-.09 23.68c0 .14 0 .18-.02.32-.15 1.25-1.31 2.31-2.58 2.34-1.42.04-2.7-1.22-2.74-2.68l.01-1.7c-.72.81-1.54 1.53-2.46 2.14-2.86 1.9-6.63 2.36-9.83 1.09-4.12-1.63-7.02-5.74-7.83-10.25-.75-4.13.15-8.58 2.65-11.92 2.1-2.82 5.38-4.75 8.93-4.79h.17c3.2.02 6.26 1.62 8.44 4.12zm-8.51 1.22c-2.66.02-4.94 2.35-5.87 4.66-1.33 3.32-.89 7.38 1.44 10.11 1.56 1.84 4.21 2.88 6.64 1.76 2.84-1.3 4.38-4.61 4.43-7.85.04-2.33-.66-4.71-2.22-6.51-1.1-1.25-2.66-2.16-4.38-2.17h-.04z" transform="matrix(2.55358 0 0 1.2787 -4103.961 -1042.533)"/>
      <path fill="#f9f9fc" fill-rule="nonzero" d="M.301-.731c.033 0 .064.005.092.015a.185.185 0 01.116.106.199.199 0 01.017.085.22.22 0 01-.012.074.323.323 0 01-.077.125l-.056.059-.163.166c.016-.004.032-.008.047-.01a.225.225 0 01.044-.004h.186c.013 0 .023.004.031.011a.04.04 0 01.012.03v.059a.021.021 0 01-.004.011A.021.021 0 01.523 0H.057a.015.015 0 01-.015-.015v-.026c0-.008.002-.017.005-.026a.08.08 0 01.017-.025l.219-.22a.8.8 0 00.086-.104A.19.19 0 00.4-.521a.13.13 0 00-.008-.046A.093.093 0 00.371-.6a.09.09 0 00-.034-.02.118.118 0 00-.043-.007.113.113 0 00-.073.022.117.117 0 00-.04.061.05.05 0 01-.017.027.043.043 0 01-.028.009L.119-.51.075-.518a.024.024 0 01-.014-.009.023.023 0 01-.003-.016.254.254 0 01.079-.135.221.221 0 01.074-.04.292.292 0 01.09-.013z" transform="matrix(57.5982 0 0 28.84245 2427.556 280.503)"/>
    </g>
  </g>
</svg>
