<svg xmlns="http://www.w3.org/2000/svg" fill-rule="evenodd" stroke-linecap="round" stroke-linejoin="round" stroke-miterlimit="1.5" clip-rule="evenodd" viewBox="0 0 66 67">
  <defs/>
  <g transform="matrix(1 0 0 1.99699 -2435 -4245.29)">
    <g id="icon_at">
      <circle cx="358" cy="4751" r="48" fill="none" stroke="#564e94" stroke-width="6.19" transform="matrix(.64583 0 0 .3234 2236.79 606.158)"/>
      <path fill="#564e94" fill-rule="nonzero" d="M.583-.091a.155.155 0 01-.031-.003.096.096 0 01-.028-.011.088.088 0 01-.041-.048.179.179 0 01-.063.047.165.165 0 01-.07.014.126.126 0 01-.057-.011.114.114 0 01-.041-.031.137.137 0 01-.025-.048A.223.223 0 01.226-.3a.241.241 0 01.059-.108.24.24 0 01.12-.07.324.324 0 01.125-.009.347.347 0 01.063.013l.028.01-.049.19a.197.197 0 00-.007.047c0 .017.003.028.011.034.007.007.017.01.03.01A.052.052 0 00.64-.196a.112.112 0 00.027-.035.278.278 0 00.025-.119.31.31 0 00-.018-.11.22.22 0 00-.136-.128.33.33 0 00-.225.008.296.296 0 00-.154.163.378.378 0 00.002.26c.016.04.039.074.067.101A.292.292 0 00.33.005c.039.013.081.02.127.02A.554.554 0 00.59.01a.385.385 0 00.084-.033.042.042 0 01.021-.006c.011 0 .019.007.024.019L.74.044a.41.41 0 01-.121.055.52.52 0 01-.162.022.506.506 0 01-.173-.029.387.387 0 01-.227-.216.46.46 0 01-.018-.277.416.416 0 01.184-.241.394.394 0 01.303-.047.41.41 0 01.163.084.33.33 0 01.097.355.258.258 0 01-.046.083.205.205 0 01-.157.076zM.381-.187a.057.057 0 00.022-.004.056.056 0 00.02-.011.098.098 0 00.017-.022.12.12 0 00.013-.034l.035-.136-.024-.002a.1.1 0 00-.048.012.126.126 0 00-.04.033.164.164 0 00-.038.105c0 .02.004.035.011.044.008.01.018.015.032.015z" transform="matrix(49.6947 0 0 24.0362 2447.45 2149.6)"/>
    </g>
  </g>
</svg>
