<svg xmlns="http://www.w3.org/2000/svg" fill-rule="evenodd" stroke-linejoin="round" stroke-miterlimit="2" clip-rule="evenodd" viewBox="0 0 73 73">
  <defs/>
  <g transform="matrix(1 0 0 1.99699 -2609 -321.29)">
    <g id="icon_elementary">
      <circle cx="233.698" cy="901.541" r="71.106" fill="#443e75" transform="matrix(.50569 0 0 .25322 2527.53 -49.06)"/>
      <path fill="#fff" fill-rule="nonzero" d="M208 352c-2.39 0-4.78.35-7.06 1.09C187.98 357.3 174.35 360 160 360c-14.35 0-27.98-2.7-40.95-6.91-2.28-.74-4.66-1.09-7.05-1.09C49.94 352-.33 402.48 0 464.62.14 490.88 21.73 512 48 512h224c26.27 0 47.86-21.12 48-47.38.33-62.14-49.94-112.62-112-112.62zm-48-32c53.02 0 96-42.98 96-96s-42.98-96-96-96-96 42.98-96 96 42.98 96 96 96zM592 0H208c-26.47 0-48 22.25-48 49.59V96c23.42 0 45.1 6.78 64 17.8V64h352v288h-64v-64H384v64h-76.24c19.1 16.69 33.12 38.73 39.69 64H592c26.47 0 48-22.25 48-49.59V49.59C640 22.25 618.47 0 592 0z" transform="matrix(.0814 0 0 .04076 2618.66 168.799)"/>
    </g>
  </g>
</svg>
