<svg xmlns="http://www.w3.org/2000/svg" fill-rule="evenodd" stroke-linejoin="round" stroke-miterlimit="2" clip-rule="evenodd" viewBox="0 0 73 73">
  <defs/>
  <g transform="matrix(1 0 0 1.99699 -2609 -509.29)">
    <g id="icon_finals">
      <circle cx="233.698" cy="901.541" r="71.106" fill="#443e75" transform="matrix(.50569 0 0 .25322 2527.53 45.066)"/>
      <path fill="#fff" fill-rule="nonzero" d="M622.884 199.005l-275.817 85.1a96.018 96.018 0 01-54.134 0L92.398 222.232c-8.564 11.438-11.018 23.05-11.918 38.335C89.778 266.165 96 276.355 96 288c0 11.952-6.557 22.366-16.265 27.861l16.197 123.096c.63 4.786-3.1 9.043-7.932 9.043H40c-4.828 0-8.562-4.253-7.932-9.044L48.265 315.86C38.557 310.366 32 299.952 32 288c0-12.034 6.646-22.511 16.465-27.976.947-17.951 3.974-33.231 12.152-47.597l-43.502-13.422c-22.876-6.801-22.766-39.241 0-46.01l275.817-85.1a96.018 96.018 0 0154.134 0l275.817 85.1c22.877 6.801 22.767 39.241.001 46.01zM356.503 314.682l-.207.064-.207.061a128.012 128.012 0 01-72.177 0l-.207-.061-.207-.064-150.914-46.57L120 352c0 35.346 89.543 64 200 64s200-28.654 200-64l-12.583-83.888-150.914 46.57z" transform="matrix(.09124 0 0 .04569 2616.51 261.663)"/>
    </g>
  </g>
</svg>
