<svg xmlns="http://www.w3.org/2000/svg" fill-rule="evenodd" stroke-linejoin="round" stroke-miterlimit="2" clip-rule="evenodd" viewBox="0 0 1920 1081">
  <defs/>
  <g transform="translate(0 .71)">
    <g id="main_bg">
      <path id="BG1" fill="#6a5bc5" d="M-29.114 0h1309.11v551.056H-29.114z" transform="matrix(1.46664 0 0 -1.95988 42.7 1080)"/>
      <path fill="#4e20c5" fill-opacity=".46" d="M0 298.653C111.65 374.502 197.248 460.207 328.315 400 459.382 339.793 1207.92 0 1207.92 0H0s.971 172.32 0 298.653z" transform="matrix(-1.28482 0 0 1.28482 1920 0)"/>
      <path fill="#6243c5" fill-opacity=".44" d="M0 298.653C111.65 374.502 197.248 460.207 328.315 400 459.382 339.793 1207.92 0 1207.92 0H0s.971 172.32 0 298.653z" transform="matrix(.9653 0 0 -1.21117 0 1080)"/>
      <path fill="#503fb4" fill-opacity=".61" d="M-68.264 318.374C43.386 394.222 315.889 460.207 446.956 400 578.023 339.793 1075.75 0 1075.75 0H0s-67.293 192.04-68.264 318.374z" transform="matrix(1.46258 0 0 1.72924 -25.109 0)"/>
      <path fill="#2a1566" fill-opacity=".16" d="M705.106 0L299.74 273.809c-42.379 28.625-99.938 17.476-128.564-24.903l-.001-.002c-28.625-42.379-17.475-99.938 24.903-128.564L374.239 0h330.867z"/>
      <path fill="#513874" fill-opacity=".27" d="M1920 259.844V631l-369.64 249.676a153.782 153.782 0 01-213.51-41.358 153.762 153.762 0 01-23.54-115.322 153.756 153.756 0 0164.9-98.192L1920 259.844z"/>
      <path fill="#230055" fill-opacity=".22" d="M0 726.067l159.527-109.943a134.144 134.144 0 01186.579 34.331 134.146 134.146 0 01-34.331 186.579L0 1051.9V726.067z"/>
      <path fill="#392474" fill-opacity=".34" d="M1920 153.938l-942.223 645.52a243.205 243.205 0 01-338.089-63.18l-.001-.001a243.202 243.202 0 0163.179-338.09L1284.07 0H1920v153.938z"/>
      <path fill="#724da7" fill-opacity=".48" d="M639.545 1080l289.116-199.254c44.29-30.524 104.939-19.365 135.459 24.926l.01.001c30.52 44.291 19.36 104.937-24.93 135.467L982.811 1080H639.545z"/>
      <path fill="#7046ab" fill-opacity=".35" d="M1111.13 0L590.511 351.658c-42.379 28.625-99.939 17.476-128.564-24.903l-.001-.001c-28.625-42.379-17.476-99.939 24.903-128.564L780.263 0h330.867z"/>
    </g>
  </g>
</svg>
