<?xml version="1.0" encoding="UTF-8" standalone="no"?>
<!DOCTYPE svg PUBLIC "-//W3C//DTD SVG 1.1//EN" "http://www.w3.org/Graphics/SVG/1.1/DTD/svg11.dtd">
<svg width="100%" height="100%" viewBox="0 0 283 404" version="1.1" xmlns="http://www.w3.org/2000/svg" xmlns:xlink="http://www.w3.org/1999/xlink" xml:space="preserve" xmlns:serif="http://www.serif.com/" style="fill-rule:evenodd;clip-rule:evenodd;stroke-linejoin:round;stroke-miterlimit:2;">
    <g transform="matrix(1,0,0,1,-1222,-4918)">
        <g transform="matrix(1,0,0,1.99699,-1970,1366.71)">
            <g id="owls_checklist">
                <g transform="matrix(0.196259,0.387809,-0.607486,0.0770897,4834.18,1475.62)">
                    <path d="M721.618,2641.12C731.946,2632.26 736.878,2616.15 733.993,2600.71C731.107,2585.27 721.011,2573.73 708.657,2571.75C657.127,2563.5 590.747,2552.88 542.538,2545.16C502.219,2538.71 461.845,2556.6 433.356,2593.53C423.991,2605.68 414.554,2617.91 406.566,2628.27C393.472,2645.25 388.17,2669.64 392.539,2692.79C394.751,2704.5 397.173,2717.34 399.313,2728.68C402.937,2747.88 415.829,2761.93 431.269,2763.52C460.05,2766.47 504.721,2771.06 521.69,2772.8C526.215,2773.27 530.767,2772.58 535.083,2770.79C553.377,2763.2 603.749,2742.3 603.749,2742.3C603.749,2742.3 668.869,2686.4 721.618,2641.12Z" style="fill:rgb(90,237,232);fill-opacity:0.38;"/>
                </g>
                <g transform="matrix(0.636505,-4.87569e-17,2.00074e-16,0.283037,2934.63,1148.26)">
                    <path d="M784.461,2613.9C786.402,2596.21 778.265,2579.05 764.129,2571.03C722.133,2547.18 634.479,2497.42 588.724,2471.45C570.522,2461.11 548.895,2461.96 531.374,2473.69C506.075,2490.63 468.924,2515.51 442.447,2533.24C422.406,2546.66 409.876,2570.71 409.257,2596.96C408.337,2635.9 406.991,2692.92 406.153,2728.41C405.686,2748.19 415.486,2766.46 431.244,2775.19C472.923,2798.3 553.246,2842.83 582.546,2859.08C589.494,2862.93 597.649,2862.86 604.543,2858.89C625.724,2846.68 673.591,2819.1 712.069,2796.93C746.997,2776.8 770.796,2738.49 775.605,2694.64C778.683,2666.58 782.06,2635.79 784.461,2613.9Z" style="fill:rgb(76,48,163);fill-opacity:0.28;"/>
                </g>
                <g id="owls_checklist1" serif:id="owls_checklist" transform="matrix(0.855842,0,0,0.428566,-1236.01,1623.91)">
                    <g transform="matrix(0.0204324,-0.118669,0.138104,0.0237787,4984.16,710.846)">
                        <path d="M2092.6,1473.24C2092.6,1451.06 2082.35,1429.78 2064.09,1414.1C2045.84,1398.41 2021.08,1389.6 1995.27,1389.6L1337.5,1389.6C1311.68,1389.6 1286.92,1398.41 1268.67,1414.1C1250.41,1429.78 1240.16,1451.06 1240.16,1473.24C1240.16,1577.1 1240.16,1753.21 1240.16,1857.07C1240.16,1879.25 1250.41,1900.52 1268.67,1916.21C1286.92,1931.89 1311.68,1940.71 1337.5,1940.71C1501.55,1940.71 1831.21,1940.71 1995.27,1940.71C2021.08,1940.71 2045.84,1931.89 2064.09,1916.21C2082.35,1900.52 2092.6,1879.25 2092.6,1857.07L2092.6,1473.24Z" style="fill:rgb(78,119,139);"/>
                    </g>
                    <g transform="matrix(0.0204324,-0.118669,0.138104,0.0237787,4984.16,710.846)">
                        <path d="M1995.66,1365.6C2032.13,1365.74 2068.09,1380.23 2091.43,1404.25C2109.97,1423.34 2120.4,1447.93 2120.54,1472.9C2120.8,1601.07 2120.8,1729.24 2120.54,1857.4C2120.4,1882.38 2109.9,1907.05 2091.43,1926.06C2068.06,1950.1 2031.88,1964.57 1995.66,1964.71C1776.14,1965.04 1556.62,1965.04 1337.1,1964.71C1291.38,1964.53 1247.26,1941.66 1226.09,1906.3C1217.07,1891.24 1212.31,1874.3 1212.22,1857.4C1211.98,1729.24 1211.98,1601.07 1212.22,1472.91C1212.4,1440.07 1230.66,1408.05 1261.12,1387.91C1282.71,1373.64 1309.71,1365.7 1337.1,1365.6C1556.62,1365.27 1776.14,1365.27 1995.66,1365.6ZM1337.52,1413.61C1308.48,1413.65 1280.45,1430.56 1271.35,1455.2C1269.21,1460.97 1268.13,1467.01 1268.1,1473.06C1267.86,1601.18 1267.41,1729.31 1268.1,1857.44C1268.32,1882.41 1288.04,1906.22 1316.71,1913.96C1323.28,1915.74 1330.15,1916.65 1337.06,1916.7C1556.6,1917.57 1776.16,1917.57 1995.7,1916.7C2017.8,1916.56 2039.39,1906.82 2052.04,1891.36C2060.11,1881.49 2064.55,1869.57 2064.66,1857.44C2065.35,1729.25 2065.35,1601.06 2064.66,1472.87C2064.44,1448.07 2044.62,1424.05 2016.05,1416.35C2009.48,1414.57 2002.6,1413.65 1995.7,1413.61C1776.31,1412.74 1556.91,1413.61 1337.52,1413.61Z" style="fill:rgb(71,104,133);fill-rule:nonzero;"/>
                    </g>
                    <g transform="matrix(0.0890917,0.0153398,-0.0153398,0.0890917,5212.61,346.262)">
                        <path d="M806.591,1720.58C808,1720.68 808.356,1720.68 809.755,1720.88C824.393,1722.99 836.814,1735.78 838.245,1750.76C838.379,1752.17 838.363,1752.53 838.396,1753.94L838.396,1951.41C838.363,1952.82 838.379,1953.17 838.245,1954.58C836.789,1969.83 823.783,1983.16 808.176,1984.65C806.769,1984.78 806.414,1984.77 805.002,1984.8L607.532,1984.8C606.121,1984.77 605.765,1984.78 604.358,1984.65C589.135,1983.2 575.78,1970.19 574.29,1954.58C574.155,1953.17 574.172,1952.82 574.138,1951.41L574.138,1753.94C574.172,1752.53 574.155,1752.17 574.29,1750.76C575.746,1735.51 588.752,1722.18 604.358,1720.69C605.765,1720.56 606.121,1720.58 607.532,1720.54L805.002,1720.54C805.532,1720.56 806.061,1720.57 806.591,1720.58ZM640.926,1787.33L640.926,1918.01L771.608,1918.01L771.608,1787.33L640.926,1787.33Z" style="fill:rgb(227,227,227);fill-rule:nonzero;"/>
                    </g>
                    <g transform="matrix(0.0890917,0.0153398,-0.0153398,0.0890917,5207.54,375.745)">
                        <path d="M806.591,1720.58C808,1720.68 808.356,1720.68 809.755,1720.88C824.393,1722.99 836.814,1735.78 838.245,1750.76C838.379,1752.17 838.363,1752.53 838.396,1753.94L838.396,1951.41C838.363,1952.82 838.379,1953.17 838.245,1954.58C836.789,1969.83 823.783,1983.16 808.176,1984.65C806.769,1984.78 806.414,1984.77 805.002,1984.8L607.532,1984.8C606.121,1984.77 605.765,1984.78 604.358,1984.65C589.108,1983.19 575.78,1970.19 574.29,1954.58C574.155,1953.17 574.172,1952.82 574.138,1951.41L574.138,1753.94C574.172,1752.53 574.155,1752.17 574.29,1750.76C575.743,1735.54 588.752,1722.18 604.358,1720.69C605.765,1720.56 606.121,1720.58 607.532,1720.54L805.002,1720.54C805.532,1720.56 806.061,1720.57 806.591,1720.58ZM640.926,1787.33L640.926,1918.01L771.608,1918.01L771.608,1787.33L640.926,1787.33Z" style="fill:rgb(227,227,227);fill-rule:nonzero;"/>
                    </g>
                    <g transform="matrix(0.0890917,0.0153398,-0.0153398,0.0890917,5202.46,405.227)">
                        <path d="M806.591,1720.58C808,1720.68 808.356,1720.68 809.755,1720.88C824.393,1722.99 836.814,1735.78 838.245,1750.76C838.379,1752.17 838.363,1752.53 838.396,1753.94L838.396,1951.41C838.363,1952.82 838.379,1953.17 838.245,1954.58C836.789,1969.83 823.783,1983.16 808.176,1984.65C806.769,1984.78 806.414,1984.77 805.002,1984.8L607.532,1984.8C606.121,1984.77 605.765,1984.78 604.358,1984.65C589.108,1983.19 575.78,1970.19 574.29,1954.58C574.155,1953.17 574.172,1952.82 574.138,1951.41L574.138,1753.94C574.172,1752.53 574.155,1752.17 574.29,1750.76C575.746,1735.51 588.752,1722.18 604.358,1720.69C605.765,1720.56 606.121,1720.58 607.532,1720.54L805.002,1720.54C805.532,1720.56 806.061,1720.57 806.591,1720.58ZM640.926,1787.33L640.926,1918.01L771.608,1918.01L771.608,1787.33L640.926,1787.33Z" style="fill:rgb(227,227,227);fill-rule:nonzero;"/>
                    </g>
                    <g transform="matrix(0.218316,0.0375895,-0.0375895,0.218316,5121.9,97.9402)">
                        <path d="M990.902,1814.52C991.866,1814.62 992.111,1814.62 993.065,1814.8C1003.38,1816.73 1010.96,1828.04 1008.37,1838.56C1007.85,1840.67 1006.97,1842.7 1005.78,1844.53C1005.25,1845.34 1005.09,1845.52 1004.49,1846.29L880.97,1996.01C880.333,1996.74 880.187,1996.94 879.49,1997.62C871.185,2005.65 855.573,2004.01 849.337,1993.71C848.834,1992.88 848.744,1992.65 848.314,1991.78L813.438,1916.17C813.057,1915.28 812.942,1915.06 812.637,1914.14C809.905,1905.9 813.474,1895.96 821.025,1891.39C830.311,1885.77 843.706,1889.7 848.752,1899.88L870.666,1947.39L974.491,1821.54L975.208,1820.72C979.308,1816.52 984.948,1814.26 990.902,1814.52Z" style="fill:rgb(240,112,112);fill-rule:nonzero;"/>
                    </g>
                    <g transform="matrix(0.218316,0.0375895,-0.0375895,0.218316,5115.17,126.471)">
                        <path d="M990.902,1814.52C991.866,1814.62 992.111,1814.62 993.065,1814.8C1003.38,1816.73 1010.96,1828.04 1008.37,1838.56C1007.85,1840.67 1006.97,1842.7 1005.78,1844.53C1005.25,1845.34 1005.09,1845.52 1004.49,1846.29L880.97,1996.01C880.333,1996.74 880.187,1996.94 879.49,1997.62C871.185,2005.65 855.573,2004.01 849.337,1993.71C848.834,1992.88 848.744,1992.65 848.314,1991.78L813.438,1916.17C813.057,1915.28 812.942,1915.06 812.637,1914.14C809.905,1905.9 813.474,1895.96 821.025,1891.39C830.311,1885.77 843.706,1889.7 848.752,1899.88L870.666,1947.39L974.491,1821.54L975.208,1820.72C979.308,1816.52 984.948,1814.26 990.902,1814.52Z" style="fill:rgb(240,112,112);fill-rule:nonzero;"/>
                    </g>
                    <g transform="matrix(-0.0452565,-0.0717155,0.0834607,-0.0526683,5301.5,718.525)">
                        <path d="M2092.6,1473.24C2092.6,1451.06 2082.35,1429.78 2064.09,1414.1C2045.84,1398.41 2021.08,1389.6 1995.27,1389.6L1337.5,1389.6C1311.68,1389.6 1286.92,1398.41 1268.67,1414.1C1250.41,1429.78 1240.16,1451.06 1240.16,1473.24C1240.16,1577.1 1240.16,1753.21 1240.16,1857.07C1240.16,1879.25 1250.41,1900.52 1268.67,1916.21C1286.92,1931.89 1311.68,1940.71 1337.5,1940.71C1501.55,1940.71 1831.21,1940.71 1995.27,1940.71C2021.08,1940.71 2045.84,1931.89 2064.09,1916.21C2082.35,1900.52 2092.6,1879.25 2092.6,1857.07L2092.6,1473.24Z" style="fill:rgb(78,119,139);"/>
                    </g>
                    <g transform="matrix(-0.0452565,-0.0717155,0.0834607,-0.0526683,5301.5,718.525)">
                        <path d="M1995.66,1365.6C2032.13,1365.74 2068.09,1380.23 2091.43,1404.25C2109.97,1423.34 2120.4,1447.93 2120.54,1472.9C2120.8,1601.07 2120.8,1729.24 2120.54,1857.4C2120.4,1882.38 2109.9,1907.05 2091.43,1926.06C2068.06,1950.1 2031.88,1964.57 1995.66,1964.71C1776.14,1965.04 1556.62,1965.04 1337.1,1964.71C1291.38,1964.53 1247.26,1941.66 1226.09,1906.3C1217.07,1891.24 1212.31,1874.3 1212.22,1857.4C1211.98,1729.24 1211.98,1601.07 1212.22,1472.91C1212.4,1440.07 1230.66,1408.05 1261.12,1387.91C1282.71,1373.64 1309.71,1365.7 1337.1,1365.6C1556.62,1365.27 1776.14,1365.27 1995.66,1365.6ZM1337.52,1413.61C1308.48,1413.65 1280.45,1430.56 1271.35,1455.2C1269.21,1460.97 1268.13,1467.01 1268.1,1473.06C1267.86,1601.18 1267.41,1729.31 1268.1,1857.44C1268.32,1882.41 1288.04,1906.22 1316.71,1913.96C1323.28,1915.74 1330.15,1916.65 1337.06,1916.7C1556.6,1917.57 1776.16,1917.57 1995.7,1916.7C2017.8,1916.56 2039.39,1906.82 2052.04,1891.36C2060.11,1881.49 2064.55,1869.57 2064.66,1857.44C2065.35,1729.25 2065.35,1601.06 2064.66,1472.87C2064.44,1448.07 2044.62,1424.05 2016.05,1416.35C2009.48,1414.57 2002.6,1413.65 1995.7,1413.61C1776.31,1412.74 1556.91,1413.61 1337.52,1413.61Z" style="fill:rgb(71,104,133);fill-rule:nonzero;"/>
                    </g>
                    <g transform="matrix(0.0538409,-0.0339766,0.0339766,0.0538409,5249.14,420.086)">
                        <path d="M806.591,1720.58C808,1720.68 808.356,1720.68 809.755,1720.88C824.393,1722.99 836.814,1735.78 838.245,1750.76C838.379,1752.17 838.363,1752.53 838.396,1753.94L838.396,1951.41C838.363,1952.82 838.379,1953.17 838.245,1954.58C836.789,1969.83 823.783,1983.16 808.176,1984.65C806.769,1984.78 806.414,1984.77 805.002,1984.8L607.532,1984.8C606.121,1984.77 605.765,1984.78 604.358,1984.65C589.135,1983.2 575.78,1970.19 574.29,1954.58C574.155,1953.17 574.172,1952.82 574.138,1951.41L574.138,1753.94C574.172,1752.53 574.155,1752.17 574.29,1750.76C575.746,1735.51 588.752,1722.18 604.358,1720.69C605.765,1720.56 606.121,1720.58 607.532,1720.54L805.002,1720.54C805.532,1720.56 806.061,1720.57 806.591,1720.58ZM640.926,1787.33L640.926,1918.01L771.608,1918.01L771.608,1787.33L640.926,1787.33Z" style="fill:rgb(227,227,227);fill-rule:nonzero;"/>
                    </g>
                    <g transform="matrix(0.0538409,-0.0339766,0.0339766,0.0538409,5260.39,437.904)">
                        <path d="M806.591,1720.58C808,1720.68 808.356,1720.68 809.755,1720.88C824.393,1722.99 836.814,1735.78 838.245,1750.76C838.379,1752.17 838.363,1752.53 838.396,1753.94L838.396,1951.41C838.363,1952.82 838.379,1953.17 838.245,1954.58C836.789,1969.83 823.783,1983.16 808.176,1984.65C806.769,1984.78 806.414,1984.77 805.002,1984.8L607.532,1984.8C606.121,1984.77 605.765,1984.78 604.358,1984.65C589.108,1983.19 575.78,1970.19 574.29,1954.58C574.155,1953.17 574.172,1952.82 574.138,1951.41L574.138,1753.94C574.172,1752.53 574.155,1752.17 574.29,1750.76C575.743,1735.54 588.752,1722.18 604.358,1720.69C605.765,1720.56 606.121,1720.58 607.532,1720.54L805.002,1720.54C805.532,1720.56 806.061,1720.57 806.591,1720.58ZM640.926,1787.33L640.926,1918.01L771.608,1918.01L771.608,1787.33L640.926,1787.33Z" style="fill:rgb(227,227,227);fill-rule:nonzero;"/>
                    </g>
                    <g transform="matrix(0.0538409,-0.0339766,0.0339766,0.0538409,5271.63,455.721)">
                        <path d="M806.591,1720.58C808,1720.68 808.356,1720.68 809.755,1720.88C824.393,1722.99 836.814,1735.78 838.245,1750.76C838.379,1752.17 838.363,1752.53 838.396,1753.94L838.396,1951.41C838.363,1952.82 838.379,1953.17 838.245,1954.58C836.789,1969.83 823.783,1983.16 808.176,1984.65C806.769,1984.78 806.414,1984.77 805.002,1984.8L607.532,1984.8C606.121,1984.77 605.765,1984.78 604.358,1984.65C589.108,1983.19 575.78,1970.19 574.29,1954.58C574.155,1953.17 574.172,1952.82 574.138,1951.41L574.138,1753.94C574.172,1752.53 574.155,1752.17 574.29,1750.76C575.746,1735.51 588.752,1722.18 604.358,1720.69C605.765,1720.56 606.121,1720.58 607.532,1720.54L805.002,1720.54C805.532,1720.56 806.061,1720.57 806.591,1720.58ZM640.926,1787.33L640.926,1918.01L771.608,1918.01L771.608,1787.33L640.926,1787.33Z" style="fill:rgb(227,227,227);fill-rule:nonzero;"/>
                    </g>
                    <g transform="matrix(0.131935,-0.0832584,0.0832584,0.131935,5084.62,332.94)">
                        <path d="M990.902,1814.52C991.866,1814.62 992.111,1814.62 993.065,1814.8C1003.38,1816.73 1010.96,1828.04 1008.37,1838.56C1007.85,1840.67 1006.97,1842.7 1005.78,1844.53C1005.25,1845.34 1005.09,1845.52 1004.49,1846.29L880.97,1996.01C880.333,1996.74 880.187,1996.94 879.49,1997.62C871.185,2005.65 855.573,2004.01 849.337,1993.71C848.834,1992.88 848.744,1992.65 848.314,1991.78L813.438,1916.17C813.057,1915.28 812.942,1915.06 812.637,1914.14C809.905,1905.9 813.474,1895.96 821.025,1891.39C830.311,1885.77 843.706,1889.7 848.752,1899.88L870.666,1947.39L974.491,1821.54L975.208,1820.72C979.308,1816.52 984.948,1814.26 990.902,1814.52Z" style="fill:rgb(240,112,112);fill-rule:nonzero;"/>
                    </g>
                    <g transform="matrix(0.0697484,-0.0482329,0.0561323,0.0811715,5155.76,348.637)">
                        <path d="M2092.6,1473.24C2092.6,1451.06 2082.35,1429.78 2064.09,1414.1C2045.84,1398.41 2021.08,1389.6 1995.27,1389.6L1337.5,1389.6C1311.68,1389.6 1286.92,1398.41 1268.67,1414.1C1250.41,1429.78 1240.16,1451.06 1240.16,1473.24C1240.16,1577.1 1240.16,1753.21 1240.16,1857.07C1240.16,1879.25 1250.41,1900.52 1268.67,1916.21C1286.92,1931.89 1311.68,1940.71 1337.5,1940.71C1501.55,1940.71 1831.21,1940.71 1995.27,1940.71C2021.08,1940.71 2045.84,1931.89 2064.09,1916.21C2082.35,1900.52 2092.6,1879.25 2092.6,1857.07L2092.6,1473.24Z" style="fill:rgb(78,119,139);"/>
                    </g>
                    <g transform="matrix(0.0697484,-0.0482329,0.0561323,0.0811715,5155.76,348.637)">
                        <path d="M1995.66,1365.6C2032.13,1365.74 2068.09,1380.23 2091.43,1404.25C2109.97,1423.34 2120.4,1447.93 2120.54,1472.9C2120.8,1601.07 2120.8,1729.24 2120.54,1857.4C2120.4,1882.38 2109.9,1907.05 2091.43,1926.06C2068.06,1950.1 2031.88,1964.57 1995.66,1964.71C1776.14,1965.04 1556.62,1965.04 1337.1,1964.71C1291.38,1964.53 1247.26,1941.66 1226.09,1906.3C1217.07,1891.24 1212.31,1874.3 1212.22,1857.4C1211.98,1729.24 1211.98,1601.07 1212.22,1472.91C1212.4,1440.07 1230.66,1408.05 1261.12,1387.91C1282.71,1373.64 1309.71,1365.7 1337.1,1365.6C1556.62,1365.27 1776.14,1365.27 1995.66,1365.6ZM1337.52,1413.61C1308.48,1413.65 1280.45,1430.56 1271.35,1455.2C1269.21,1460.97 1268.13,1467.01 1268.1,1473.06C1267.86,1601.18 1267.41,1729.31 1268.1,1857.44C1268.32,1882.41 1288.04,1906.22 1316.71,1913.96C1323.28,1915.74 1330.15,1916.65 1337.06,1916.7C1556.6,1917.57 1776.16,1917.57 1995.7,1916.7C2017.8,1916.56 2039.39,1906.82 2052.04,1891.36C2060.11,1881.49 2064.55,1869.57 2064.66,1857.44C2065.35,1729.25 2065.35,1601.06 2064.66,1472.87C2064.44,1448.07 2044.62,1424.05 2016.05,1416.35C2009.48,1414.57 2002.6,1413.65 1995.7,1413.61C1776.31,1412.74 1556.91,1413.61 1337.52,1413.61Z" style="fill:rgb(71,104,133);fill-rule:nonzero;"/>
                    </g>
                    <g transform="matrix(0.0362112,0.0523642,-0.0523642,0.0362112,5451.73,283.767)">
                        <path d="M806.591,1720.58C808,1720.68 808.356,1720.68 809.755,1720.88C824.393,1722.99 836.814,1735.78 838.245,1750.76C838.379,1752.17 838.363,1752.53 838.396,1753.94L838.396,1951.41C838.363,1952.82 838.379,1953.17 838.245,1954.58C836.789,1969.83 823.783,1983.16 808.176,1984.65C806.769,1984.78 806.414,1984.77 805.002,1984.8L607.532,1984.8C606.121,1984.77 605.765,1984.78 604.358,1984.65C589.135,1983.2 575.78,1970.19 574.29,1954.58C574.155,1953.17 574.172,1952.82 574.138,1951.41L574.138,1753.94C574.172,1752.53 574.155,1752.17 574.29,1750.76C575.746,1735.51 588.752,1722.18 604.358,1720.69C605.765,1720.56 606.121,1720.58 607.532,1720.54L805.002,1720.54C805.532,1720.56 806.061,1720.57 806.591,1720.58ZM640.926,1787.33L640.926,1918.01L771.608,1918.01L771.608,1787.33L640.926,1787.33Z" style="fill:rgb(227,227,227);fill-rule:nonzero;"/>
                    </g>
                    <g transform="matrix(0.0362112,0.0523642,-0.0523642,0.0362112,5434.4,295.75)">
                        <path d="M806.591,1720.58C808,1720.68 808.356,1720.68 809.755,1720.88C824.393,1722.99 836.814,1735.78 838.245,1750.76C838.379,1752.17 838.363,1752.53 838.396,1753.94L838.396,1951.41C838.363,1952.82 838.379,1953.17 838.245,1954.58C836.789,1969.83 823.783,1983.16 808.176,1984.65C806.769,1984.78 806.414,1984.77 805.002,1984.8L607.532,1984.8C606.121,1984.77 605.765,1984.78 604.358,1984.65C589.108,1983.19 575.78,1970.19 574.29,1954.58C574.155,1953.17 574.172,1952.82 574.138,1951.41L574.138,1753.94C574.172,1752.53 574.155,1752.17 574.29,1750.76C575.743,1735.54 588.752,1722.18 604.358,1720.69C605.765,1720.56 606.121,1720.58 607.532,1720.54L805.002,1720.54C805.532,1720.56 806.061,1720.57 806.591,1720.58ZM640.926,1787.33L640.926,1918.01L771.608,1918.01L771.608,1787.33L640.926,1787.33Z" style="fill:rgb(227,227,227);fill-rule:nonzero;"/>
                    </g>
                    <g transform="matrix(0.0362112,0.0523642,-0.0523642,0.0362112,5417.07,307.734)">
                        <path d="M806.591,1720.58C808,1720.68 808.356,1720.68 809.755,1720.88C824.393,1722.99 836.814,1735.78 838.245,1750.76C838.379,1752.17 838.363,1752.53 838.396,1753.94L838.396,1951.41C838.363,1952.82 838.379,1953.17 838.245,1954.58C836.789,1969.83 823.783,1983.16 808.176,1984.65C806.769,1984.78 806.414,1984.77 805.002,1984.8L607.532,1984.8C606.121,1984.77 605.765,1984.78 604.358,1984.65C589.108,1983.19 575.78,1970.19 574.29,1954.58C574.155,1953.17 574.172,1952.82 574.138,1951.41L574.138,1753.94C574.172,1752.53 574.155,1752.17 574.29,1750.76C575.746,1735.51 588.752,1722.18 604.358,1720.69C605.765,1720.56 606.121,1720.58 607.532,1720.54L805.002,1720.54C805.532,1720.56 806.061,1720.57 806.591,1720.58ZM640.926,1787.33L640.926,1918.01L771.608,1918.01L771.608,1787.33L640.926,1787.33Z" style="fill:rgb(227,227,227);fill-rule:nonzero;"/>
                    </g>
                    <g transform="matrix(0.0887343,0.128316,-0.128316,0.0887343,5531.88,115.722)">
                        <path d="M990.902,1814.52C991.866,1814.62 992.111,1814.62 993.065,1814.8C1003.38,1816.73 1010.96,1828.04 1008.37,1838.56C1007.85,1840.67 1006.97,1842.7 1005.78,1844.53C1005.25,1845.34 1005.09,1845.52 1004.49,1846.29L880.97,1996.01C880.333,1996.74 880.187,1996.94 879.49,1997.62C871.185,2005.65 855.573,2004.01 849.337,1993.71C848.834,1992.88 848.744,1992.65 848.314,1991.78L813.438,1916.17C813.057,1915.28 812.942,1915.06 812.637,1914.14C809.905,1905.9 813.474,1895.96 821.025,1891.39C830.311,1885.77 843.706,1889.7 848.752,1899.88L870.666,1947.39L974.491,1821.54L975.208,1820.72C979.308,1816.52 984.948,1814.26 990.902,1814.52Z" style="fill:rgb(240,112,112);fill-rule:nonzero;"/>
                    </g>
                    <g id="owl1">
                        <g transform="matrix(0.315262,0,0,0.315262,5185.14,581.291)">
                            <path d="M427.025,131.061C466.491,174.599 490.549,232.359 490.549,295.694C490.549,431.064 380.645,540.968 245.274,540.968C109.903,540.968 -0.001,431.064 -0.001,295.694C-0.001,237.926 20.013,184.796 53.48,142.865L82.154,23.726C82.154,23.726 103.265,51.948 141.631,73.361C173.121,58.643 208.245,50.419 245.274,50.419C274.884,50.419 303.276,55.677 329.565,65.31C372.472,37.037 398.75,-0 398.75,-0L427.025,131.061Z" style="fill:rgb(44,158,144);"/>
                        </g>
                        <g transform="matrix(0.315262,0,0,0.315262,5185.14,581.291)">
                            <path d="M62.87,459.603C94.453,387.389 164.285,337.15 245.274,337.15C326.263,337.15 396.095,387.389 427.677,459.603C382.765,509.543 317.66,540.968 245.274,540.968C172.887,540.968 107.783,509.543 62.87,459.603Z" style="fill:rgb(52,182,166);"/>
                        </g>
                        <g transform="matrix(0.222924,0.222924,-0.222924,0.222924,5309.99,362.094)">
                            <rect x="564.142" y="777.347" width="100.095" height="100.095" style="fill:rgb(96,66,51);"/>
                        </g>
                        <g transform="matrix(0.362908,0,0,0.362908,4830.91,433.2)">
                            <circle cx="1107.35" cy="613.196" r="101.822" style="fill:white;"/>
                        </g>
                        <g transform="matrix(0.362908,0,0,0.362908,4890.14,433.2)">
                            <circle cx="1107.35" cy="613.196" r="101.822" style="fill:white;"/>
                        </g>
                        <g id="eyeLidR" transform="matrix(0.168988,0,0,0.168988,5104.67,556.525)">
                            <circle cx="1107.35" cy="613.196" r="101.822" style="fill:rgb(18,62,57);"/>
                        </g>
                        <g id="eyeLidL" transform="matrix(0.168988,0,0,0.168988,5044.87,556.525)">
                            <circle cx="1107.35" cy="613.196" r="101.822" style="fill:rgb(18,62,57);"/>
                        </g>
                    </g>
                    <g id="owl3" transform="matrix(-0.882364,5.43799e-33,0,0.882364,6642.82,-992.195)">
                        <g transform="matrix(-1.13332,6.98462e-33,0,1.13332,3013.44,-2510.71)">
                            <path d="M1404.7,3855.12L1412.3,3819.88C1412.3,3819.88 1419.37,3829.84 1430.91,3837.44C1437.98,3834.85 1445.62,3833.44 1453.58,3833.44C1463.54,3833.44 1472.98,3835.65 1481.45,3839.61C1491.77,3833.85 1497.45,3826.26 1497.45,3826.26L1505.16,3858.3C1514.16,3869.58 1519.54,3883.87 1519.54,3899.4C1519.54,3935.81 1489.98,3965.36 1453.58,3965.36C1417.17,3965.36 1387.62,3935.81 1387.62,3899.4C1387.62,3882.37 1394.09,3866.83 1404.7,3855.12Z" style="fill:rgb(41,196,156);"/>
                        </g>
                        <g transform="matrix(-1.13332,6.98462e-33,0,1.13332,3013.44,-2510.71)">
                            <path d="M1404.52,3943.48C1413.02,3924.06 1431.8,3910.55 1453.58,3910.55C1475.36,3910.55 1494.14,3924.06 1502.63,3943.48C1490.56,3956.91 1473.05,3965.36 1453.58,3965.36C1434.11,3965.36 1416.6,3956.91 1404.52,3943.48Z" style="fill:rgb(74,215,178);"/>
                        </g>
                        <g transform="matrix(0.215518,0.215518,-0.215518,0.215518,1412.02,1606.51)">
                            <rect x="564.142" y="777.347" width="100.095" height="100.095" style="fill:rgb(144,44,32);"/>
                        </g>
                        <g transform="matrix(0.350853,0,0,0.350853,948.853,1675.25)">
                            <circle cx="1107.35" cy="613.196" r="101.822" style="fill:white;"/>
                        </g>
                        <g transform="matrix(0.350853,0,0,0.350853,1006.11,1675.25)">
                            <circle cx="1107.35" cy="613.196" r="101.822" style="fill:white;"/>
                        </g>
                        <g transform="matrix(0.163373,0,0,0.163373,1221.99,1776.33)">
                            <circle cx="1107.35" cy="613.196" r="101.822" style="fill:rgb(18,62,57);"/>
                        </g>
                        <g transform="matrix(0.163373,0,0,0.163373,1164.17,1776.33)">
                            <circle cx="1107.35" cy="613.196" r="101.822" style="fill:rgb(18,62,57);"/>
                        </g>
                    </g>
                    <g id="owl2" transform="matrix(-0.671569,4.13887e-33,0,0.671569,6271.35,-569.22)">
                        <g transform="matrix(-1.48905,9.17697e-33,0,1.48905,3406.18,-3928.62)">
                            <path d="M1332.88,3886.36L1338.66,3859.54C1338.66,3859.54 1344.04,3867.12 1352.82,3872.91C1358.2,3870.93 1364.02,3869.86 1370.08,3869.86C1377.66,3869.86 1384.85,3871.54 1391.29,3874.55C1399.14,3870.17 1403.46,3864.39 1403.46,3864.39L1409.34,3888.78C1416.18,3897.37 1420.28,3908.24 1420.28,3920.06C1420.28,3947.77 1397.79,3970.27 1370.08,3970.27C1342.37,3970.27 1319.87,3947.77 1319.87,3920.06C1319.87,3907.1 1324.8,3895.28 1332.88,3886.36Z" style="fill:rgb(9,153,116);"/>
                        </g>
                        <g transform="matrix(-1.48905,9.17697e-33,0,1.48905,3406.18,-3928.62)">
                            <path d="M1332.74,3953.61C1339.2,3938.83 1353.5,3928.55 1370.08,3928.55C1386.65,3928.55 1400.95,3938.83 1407.41,3953.61C1398.22,3963.84 1384.89,3970.27 1370.08,3970.27C1355.26,3970.27 1341.93,3963.84 1332.74,3953.61Z" style="fill:rgb(6,214,160);"/>
                        </g>
                        <g transform="matrix(0.215518,0.215518,-0.215518,0.215518,1412.02,1606.51)">
                            <rect x="564.142" y="777.347" width="100.095" height="100.095" style="fill:rgb(144,44,32);"/>
                        </g>
                        <g transform="matrix(0.350853,0,0,0.350853,948.853,1675.25)">
                            <circle cx="1107.35" cy="613.196" r="101.822" style="fill:white;"/>
                        </g>
                        <g transform="matrix(0.350853,0,0,0.350853,1006.11,1675.25)">
                            <circle cx="1107.35" cy="613.196" r="101.822" style="fill:white;"/>
                        </g>
                        <g transform="matrix(0.163373,0,0,0.163373,1220.67,1780.97)">
                            <circle cx="1107.35" cy="613.196" r="101.822" style="fill:rgb(18,62,57);"/>
                        </g>
                        <g transform="matrix(0.163373,0,0,0.163373,1162.85,1780.97)">
                            <circle cx="1107.35" cy="613.196" r="101.822" style="fill:rgb(18,62,57);"/>
                        </g>
                    </g>
                </g>
            </g>
        </g>
    </g>
</svg>
