<?xml version="1.0" encoding="UTF-8" standalone="no"?>
<!DOCTYPE svg PUBLIC "-//W3C//DTD SVG 1.1//EN" "http://www.w3.org/Graphics/SVG/1.1/DTD/svg11.dtd">
<svg width="100%" height="100%" viewBox="0 0 446 235" version="1.1" xmlns="http://www.w3.org/2000/svg" xmlns:xlink="http://www.w3.org/1999/xlink" xml:space="preserve" xmlns:serif="http://www.serif.com/" style="fill-rule:evenodd;clip-rule:evenodd;stroke-linejoin:round;stroke-miterlimit:2;">
    <g transform="matrix(1,0,0,1,-1081,-5562)">
        <g transform="matrix(1,0,0,1.99699,-1970,1366.71)">
            <g id="owls_talk">
                <g transform="matrix(0.977138,0,0,0.489305,2016.73,-492.901)">
                    <path d="M1349.46,5511.77C1349.21,5511.77 1334.27,5511.82 1331.72,5511.77C1329.88,5518.32 1326.38,5524.36 1321.48,5529.26C1313.96,5536.78 1303.76,5541 1293.13,5541C1268.12,5541 1236.03,5541 1211.02,5541C1200.38,5541 1190.19,5536.78 1182.67,5529.26C1177.77,5524.36 1174.27,5518.32 1172.43,5511.77L1141.65,5511.77C1128.04,5511.77 1117,5500.73 1117,5487.11C1117,5487.11 1117,5487.11 1117,5487.11C1117,5473.49 1128.04,5462.46 1141.65,5462.46L1170.93,5462.46L1170.93,5446.81C1164.33,5438.52 1160.38,5428.06 1160.38,5416.68C1160.38,5390.03 1182.04,5368.35 1208.84,5368C1213.07,5350.39 1228.92,5337.29 1247.83,5337.29L1291.01,5337.29C1311.47,5337.29 1328.34,5352.61 1330.79,5372.4L1353.27,5372.4C1375.41,5372.4 1393.36,5390.35 1393.36,5412.49L1393.36,5447.03C1393.36,5448.71 1393.25,5450.37 1393.05,5452L1433.47,5452C1436.26,5452 1438.94,5453.11 1440.92,5455.08C1442.89,5457.06 1444,5459.74 1444,5462.53L1444,5488.61C1444,5501.4 1433.63,5511.77 1420.84,5511.77C1394.42,5511.77 1354.21,5511.77 1349.46,5511.77ZM1083.88,5462.46C1097.61,5462.46 1108.75,5473.51 1108.75,5487.11C1108.75,5500.72 1097.61,5511.77 1083.88,5511.77C1070.15,5511.77 1059,5500.72 1059,5487.11C1059,5473.51 1070.15,5462.46 1083.88,5462.46ZM1489.11,5462.46C1502.84,5462.46 1513.98,5473.51 1513.98,5487.11C1513.98,5500.72 1502.84,5511.77 1489.11,5511.77C1475.38,5511.77 1464.23,5500.72 1464.23,5487.11C1464.23,5473.51 1475.38,5462.46 1489.11,5462.46ZM1353.46,5346C1358.41,5346 1362.43,5349.98 1362.43,5354.89C1362.43,5359.8 1358.41,5363.78 1353.46,5363.78C1348.51,5363.78 1344.49,5359.8 1344.49,5354.89C1344.49,5349.98 1348.51,5346 1353.46,5346ZM1260.68,5301C1268.78,5301 1275.35,5307.52 1275.35,5315.55C1275.35,5323.57 1268.78,5330.09 1260.68,5330.09C1252.58,5330.09 1246,5323.57 1246,5315.55C1246,5307.52 1252.58,5301 1260.68,5301Z" style="fill:rgb(242,240,250);"/>
                </g>
                <g id="owl2" transform="matrix(-0.720811,2.22452e-33,0,0.360949,4405.89,1501.26)">
                    <g transform="matrix(-1.4455,8.90856e-33,0,1.4455,5211.53,276.919)">
                        <path d="M2621.99,1094.06L2627.95,1066.42C2627.95,1066.42 2633.49,1074.23 2642.53,1080.19C2648.08,1078.16 2654.06,1077.05 2660.31,1077.05C2668.12,1077.05 2675.52,1078.79 2682.16,1081.89C2690.25,1077.37 2694.7,1071.42 2694.7,1071.42L2700.75,1096.55C2707.8,1105.39 2712.02,1116.59 2712.02,1128.77C2712.02,1157.31 2688.85,1180.49 2660.31,1180.49C2631.76,1180.49 2608.59,1157.31 2608.59,1128.77C2608.59,1115.41 2613.66,1103.24 2621.99,1094.06Z" style="fill:rgb(41,196,156);"/>
                    </g>
                    <g transform="matrix(-1.4455,8.90856e-33,0,1.4455,5211.53,276.919)">
                        <path d="M2621.85,1163.33C2628.51,1148.1 2643.23,1137.51 2660.31,1137.51C2677.38,1137.51 2692.11,1148.1 2698.77,1163.33C2689.3,1173.86 2675.57,1180.49 2660.31,1180.49C2645.04,1180.49 2631.32,1173.86 2621.85,1163.33Z" style="fill:rgb(74,215,178);"/>
                    </g>
                    <g transform="matrix(0.215518,0.215518,-0.215518,0.215518,1412.02,1606.51)">
                        <rect x="564.142" y="777.347" width="100.095" height="100.095" style="fill:rgb(144,44,32);"/>
                    </g>
                    <g transform="matrix(0.350853,0,0,0.350853,948.853,1675.25)">
                        <circle cx="1107.35" cy="613.196" r="101.822" style="fill:white;"/>
                    </g>
                    <g transform="matrix(0.350853,0,0,0.350853,1006.11,1675.25)">
                        <circle cx="1107.35" cy="613.196" r="101.822" style="fill:white;"/>
                    </g>
                    <g transform="matrix(0.163373,0,0,0.163373,1221.99,1786.05)">
                        <circle cx="1107.35" cy="613.196" r="101.822" style="fill:rgb(18,62,57);"/>
                    </g>
                    <g transform="matrix(0.163373,0,0,0.163373,1164.17,1786.05)">
                        <circle cx="1107.35" cy="613.196" r="101.822" style="fill:rgb(18,62,57);"/>
                    </g>
                </g>
                <g id="owl1" transform="matrix(-0.692642,2.13758e-33,0,0.346843,4073.38,1528.97)">
                    <g transform="matrix(-1.89921,1.17048e-32,0,1.89921,6294.22,-265.992)">
                        <path d="M2565.67,1118.55L2570.21,1097.52C2570.21,1097.52 2574.43,1103.46 2581.31,1108C2585.53,1106.45 2590.09,1105.61 2594.84,1105.61C2600.78,1105.61 2606.42,1106.93 2611.47,1109.29C2617.63,1105.85 2621.02,1101.32 2621.02,1101.32L2625.62,1120.45C2630.99,1127.17 2634.2,1135.7 2634.2,1144.97C2634.2,1166.69 2616.56,1184.33 2594.84,1184.33C2573.11,1184.33 2555.48,1166.69 2555.48,1144.97C2555.48,1134.81 2559.34,1125.54 2565.67,1118.55Z" style="fill:rgb(9,153,116);"/>
                    </g>
                    <g transform="matrix(-1.89921,1.17048e-32,0,1.89921,6294.22,-265.992)">
                        <path d="M2565.57,1171.28C2570.63,1159.69 2581.84,1151.62 2594.84,1151.62C2607.84,1151.62 2619.04,1159.69 2624.11,1171.28C2616.9,1179.29 2606.45,1184.33 2594.84,1184.33C2583.22,1184.33 2572.77,1179.29 2565.57,1171.28Z" style="fill:rgb(6,214,160);"/>
                    </g>
                    <g transform="matrix(0.215518,0.215518,-0.215518,0.215518,1412.02,1606.51)">
                        <rect x="564.142" y="777.347" width="100.095" height="100.095" style="fill:rgb(144,44,32);"/>
                    </g>
                    <g transform="matrix(0.350853,0,0,0.350853,948.853,1675.25)">
                        <circle cx="1107.35" cy="613.196" r="101.822" style="fill:white;"/>
                    </g>
                    <g transform="matrix(0.350853,0,0,0.350853,1006.11,1675.25)">
                        <circle cx="1107.35" cy="613.196" r="101.822" style="fill:white;"/>
                    </g>
                    <g transform="matrix(0.163373,0,0,0.163373,1205.18,1785.61)">
                        <circle cx="1107.35" cy="613.196" r="101.822" style="fill:rgb(18,62,57);"/>
                    </g>
                    <g transform="matrix(0.163373,0,0,0.163373,1147.36,1785.61)">
                        <circle cx="1107.35" cy="613.196" r="101.822" style="fill:rgb(18,62,57);"/>
                    </g>
                </g>
                <g transform="matrix(1,0,0,0.968312,48.5755,124.561)">
                    <g transform="matrix(0.741213,0,0,0.132128,2233.86,1517.93)">
                        <path d="M1420.1,4718.53C1420.1,4695.58 1416.95,4673.57 1411.36,4657.34C1405.77,4641.12 1398.18,4632 1390.27,4632C1361.62,4632 1317.69,4632 1283.07,4632C1268.99,4632 1255.5,4648.22 1245.54,4677.09C1235.59,4705.96 1230,4745.12 1230,4785.95C1230,4797.68 1230,4805.07 1230,4805.07C1230,4805.07 1336.76,4805.07 1390.27,4805.07C1398.18,4805.07 1405.77,4795.96 1411.36,4779.73C1416.95,4763.5 1420.1,4741.49 1420.1,4718.54C1420.1,4718.54 1420.1,4718.53 1420.1,4718.53Z" style="fill:rgb(90,237,232);"/>
                    </g>
                    <g transform="matrix(-0.607702,0,0,0.220368,4015.21,1112.65)">
                        <path d="M1374,4640.5C1374,4638.25 1373.37,4636.08 1372.25,4634.49C1371.14,4632.9 1369.62,4632 1368.04,4632C1346.67,4632 1274.02,4632 1252.65,4632C1251.07,4632 1249.55,4632.9 1248.43,4634.49C1247.32,4636.08 1246.69,4638.25 1246.69,4640.5C1246.69,4640.5 1246.69,4640.5 1246.69,4640.5C1246.69,4642.75 1247.32,4644.92 1248.43,4646.51C1249.55,4648.1 1251.07,4649 1252.65,4649C1274.02,4649 1346.67,4649 1368.04,4649C1369.62,4649 1371.14,4648.1 1372.25,4646.51C1373.37,4644.92 1374,4642.75 1374,4640.5C1374,4640.5 1374,4640.5 1374,4640.5Z" style="fill:rgb(228,254,247);"/>
                    </g>
                    <g transform="matrix(-0.607702,0,0,0.220368,4015.21,1118.78)">
                        <path d="M1374,4640.5C1374,4638.25 1373.37,4636.08 1372.25,4634.49C1371.14,4632.9 1369.62,4632 1368.04,4632C1346.67,4632 1274.02,4632 1252.65,4632C1251.07,4632 1249.55,4632.9 1248.43,4634.49C1247.32,4636.08 1246.69,4638.25 1246.69,4640.5C1246.69,4640.5 1246.69,4640.5 1246.69,4640.5C1246.69,4642.75 1247.32,4644.92 1248.43,4646.51C1249.55,4648.1 1251.07,4649 1252.65,4649C1274.02,4649 1346.67,4649 1368.04,4649C1369.62,4649 1371.14,4648.1 1372.25,4646.51C1373.37,4644.92 1374,4642.75 1374,4640.5C1374,4640.5 1374,4640.5 1374,4640.5Z" style="fill:rgb(228,254,247);"/>
                    </g>
                    <g transform="matrix(-0.607702,0,0,0.220368,4015.21,1124.91)">
                        <path d="M1374,4640.5C1374,4638.25 1373.37,4636.08 1372.25,4634.49C1371.14,4632.9 1369.62,4632 1368.04,4632C1346.67,4632 1274.02,4632 1252.65,4632C1251.07,4632 1249.55,4632.9 1248.43,4634.49C1247.32,4636.08 1246.69,4638.25 1246.69,4640.5C1246.69,4640.5 1246.69,4640.5 1246.69,4640.5C1246.69,4642.75 1247.32,4644.92 1248.43,4646.51C1249.55,4648.1 1251.07,4649 1252.65,4649C1274.02,4649 1346.67,4649 1368.04,4649C1369.62,4649 1371.14,4648.1 1372.25,4646.51C1373.37,4644.92 1374,4642.75 1374,4640.5C1374,4640.5 1374,4640.5 1374,4640.5Z" style="fill:rgb(228,254,247);"/>
                    </g>
                </g>
                <g transform="matrix(0.741213,0,0,0.127941,2282.43,1537.7)">
                    <path d="M1420.1,4718.53C1420.1,4695.58 1416.95,4673.57 1411.36,4657.34C1405.77,4641.12 1398.18,4632 1390.27,4632C1361.62,4632 1317.69,4632 1283.07,4632C1268.99,4632 1255.5,4648.22 1245.54,4677.09C1235.59,4705.96 1230,4745.12 1230,4785.95C1230,4797.68 1230,4805.07 1230,4805.07L1390.27,4805.07C1398.18,4805.07 1405.77,4795.96 1411.36,4779.73C1416.95,4763.5 1420.1,4741.49 1420.1,4718.54L1420.1,4718.53Z" style="fill:rgb(90,237,232);"/>
                </g>
                <g transform="matrix(-0.607702,0,0,0.213385,4063.78,1145.26)">
                    <path d="M1374,4640.5C1374,4638.25 1373.37,4636.08 1372.25,4634.49C1371.14,4632.9 1369.62,4632 1368.04,4632C1346.67,4632 1274.02,4632 1252.65,4632C1251.07,4632 1249.55,4632.9 1248.43,4634.49C1247.32,4636.08 1246.69,4638.25 1246.69,4640.5C1246.69,4640.5 1246.69,4640.5 1246.69,4640.5C1246.69,4642.75 1247.32,4644.92 1248.43,4646.51C1249.55,4648.1 1251.07,4649 1252.65,4649C1274.02,4649 1346.67,4649 1368.04,4649C1369.62,4649 1371.14,4648.1 1372.25,4646.51C1373.37,4644.92 1374,4642.75 1374,4640.5C1374,4640.5 1374,4640.5 1374,4640.5Z" style="fill:rgb(228,254,247);"/>
                </g>
                <g transform="matrix(-0.607702,0,0,0.213385,4063.78,1151.19)">
                    <path d="M1374,4640.5C1374,4638.25 1373.37,4636.08 1372.25,4634.49C1371.14,4632.9 1369.62,4632 1368.04,4632C1346.67,4632 1274.02,4632 1252.65,4632C1251.07,4632 1249.55,4632.9 1248.43,4634.49C1247.32,4636.08 1246.69,4638.25 1246.69,4640.5C1246.69,4640.5 1246.69,4640.5 1246.69,4640.5C1246.69,4642.75 1247.32,4644.92 1248.43,4646.51C1249.55,4648.1 1251.07,4649 1252.65,4649C1274.02,4649 1346.67,4649 1368.04,4649C1369.62,4649 1371.14,4648.1 1372.25,4646.51C1373.37,4644.92 1374,4642.75 1374,4640.5C1374,4640.5 1374,4640.5 1374,4640.5Z" style="fill:rgb(228,254,247);"/>
                </g>
                <g transform="matrix(-0.607702,0,0,0.213385,4063.78,1157.13)">
                    <path d="M1374,4640.5C1374,4638.25 1373.37,4636.08 1372.25,4634.49C1371.14,4632.9 1369.62,4632 1368.04,4632C1346.67,4632 1274.02,4632 1252.65,4632C1251.07,4632 1249.55,4632.9 1248.43,4634.49C1247.32,4636.08 1246.69,4638.25 1246.69,4640.5C1246.69,4640.5 1246.69,4640.5 1246.69,4640.5C1246.69,4642.75 1247.32,4644.92 1248.43,4646.51C1249.55,4648.1 1251.07,4649 1252.65,4649C1274.02,4649 1346.67,4649 1368.04,4649C1369.62,4649 1371.14,4648.1 1372.25,4646.51C1373.37,4644.92 1374,4642.75 1374,4640.5C1374,4640.5 1374,4640.5 1374,4640.5Z" style="fill:rgb(228,254,247);"/>
                </g>
                <g transform="matrix(1,0,0,0.968312,16.5755,124.561)">
                    <g transform="matrix(-0.741213,0,0,0.132128,4252.45,1489.64)">
                        <path d="M1420.1,4718.53C1420.1,4695.58 1416.95,4673.57 1411.36,4657.34C1405.77,4641.12 1398.18,4632 1390.27,4632C1361.62,4632 1317.69,4632 1283.07,4632C1268.99,4632 1255.5,4648.22 1245.54,4677.09C1235.59,4705.96 1230,4745.12 1230,4785.95C1230,4797.68 1230,4805.07 1230,4805.07L1390.27,4805.07C1398.18,4805.07 1405.77,4795.96 1411.36,4779.73C1416.95,4763.5 1420.1,4741.49 1420.1,4718.54L1420.1,4718.53Z" style="fill:rgb(51,249,198);"/>
                    </g>
                    <g transform="matrix(-0.607702,0,0,0.220368,4061.58,1084.34)">
                        <path d="M1374,4640.5C1374,4638.25 1373.37,4636.08 1372.25,4634.49C1371.14,4632.9 1369.62,4632 1368.04,4632C1346.67,4632 1274.02,4632 1252.65,4632C1251.07,4632 1249.55,4632.9 1248.43,4634.49C1247.32,4636.08 1246.69,4638.25 1246.69,4640.5C1246.69,4640.5 1246.69,4640.5 1246.69,4640.5C1246.69,4642.75 1247.32,4644.92 1248.43,4646.51C1249.55,4648.1 1251.07,4649 1252.65,4649C1274.02,4649 1346.67,4649 1368.04,4649C1369.62,4649 1371.14,4648.1 1372.25,4646.51C1373.37,4644.92 1374,4642.75 1374,4640.5C1374,4640.5 1374,4640.5 1374,4640.5Z" style="fill:rgb(228,254,247);"/>
                    </g>
                    <g transform="matrix(-0.607702,0,0,0.220368,4061.58,1090.48)">
                        <path d="M1374,4640.5C1374,4638.25 1373.37,4636.08 1372.25,4634.49C1371.14,4632.9 1369.62,4632 1368.04,4632C1346.67,4632 1274.02,4632 1252.65,4632C1251.07,4632 1249.55,4632.9 1248.43,4634.49C1247.32,4636.08 1246.69,4638.25 1246.69,4640.5C1246.69,4640.5 1246.69,4640.5 1246.69,4640.5C1246.69,4642.75 1247.32,4644.92 1248.43,4646.51C1249.55,4648.1 1251.07,4649 1252.65,4649C1274.02,4649 1346.67,4649 1368.04,4649C1369.62,4649 1371.14,4648.1 1372.25,4646.51C1373.37,4644.92 1374,4642.75 1374,4640.5C1374,4640.5 1374,4640.5 1374,4640.5Z" style="fill:rgb(228,254,247);"/>
                    </g>
                    <g transform="matrix(-0.607702,0,0,0.220368,4061.58,1096.61)">
                        <path d="M1374,4640.5C1374,4638.25 1373.37,4636.08 1372.25,4634.49C1371.14,4632.9 1369.62,4632 1368.04,4632C1346.67,4632 1274.02,4632 1252.65,4632C1251.07,4632 1249.55,4632.9 1248.43,4634.49C1247.32,4636.08 1246.69,4638.25 1246.69,4640.5C1246.69,4640.5 1246.69,4640.5 1246.69,4640.5C1246.69,4642.75 1247.32,4644.92 1248.43,4646.51C1249.55,4648.1 1251.07,4649 1252.65,4649C1274.02,4649 1346.67,4649 1368.04,4649C1369.62,4649 1371.14,4648.1 1372.25,4646.51C1373.37,4644.92 1374,4642.75 1374,4640.5C1374,4640.5 1374,4640.5 1374,4640.5Z" style="fill:rgb(228,254,247);"/>
                    </g>
                </g>
            </g>
        </g>
    </g>
</svg>
