<svg xmlns="http://www.w3.org/2000/svg" xmlns:xlink="http://www.w3.org/1999/xlink" fill-rule="evenodd" stroke-linejoin="round" stroke-miterlimit="2" clip-rule="evenodd" viewBox="0 0 389 394">
  <defs>
    <path id="reuse-0" fill="#902c20" d="M564.142 777.347h100.095v100.095H564.142z"/>
  </defs>
  <g transform="matrix(1 0 0 1.99699 -2313 -2930.29)">
    <g id="owls_contest">
      <path fill="#5aede8" fill-opacity=".31" d="M784.928 2609.65c1.661-15.14-5.303-29.83-17.402-36.7-41.729-23.69-137.44-78.02-183.014-103.9-15.578-8.84-34.088-8.11-49.083 1.93-26.678 17.86-69.622 46.61-97.623 65.36-17.152 11.49-27.875 32.07-28.406 54.54l-3.357 142.21c-.4 16.92 7.987 32.56 21.474 40.04 41.159 22.82 127.91 70.91 156.621 86.83 5.946 3.3 12.926 3.23 18.826-.16 21.7-12.51 76.618-44.15 117.155-67.51 29.894-17.22 50.261-50.01 54.378-87.54l10.431-95.1z" transform="matrix(.74372 0 0 .33071 2103.89 696.151)"/>
      <use width="178.94" height="165.63" x="1" y="113.065" transform="matrix(.99967 0 0 .49964 2312.998 1467.353)" xlink:href="#_Image1"/>
      <circle cx="2526.55" cy="2439.65" r="8.525" fill="#ed6a5a" transform="matrix(.7625 0 0 .38183 522.447 572.63)"/>
      <circle cx="2526.55" cy="2439.65" r="8.525" fill="#ed6a5a" transform="matrix(1.50301 0 0 .75264 -1210.01 -344.201)"/>
      <circle cx="2526.55" cy="2439.65" r="8.525" fill="#ed6a5a" transform="matrix(.79209 0 0 .39664 629.764 557.204)"/>
      <circle cx="2526.55" cy="2439.65" r="8.525" fill="#ed6a5a" transform="matrix(.49239 0 0 .24657 1286.15 906.051)"/>
      <path fill="#5aede8" d="M2499.65 2482.16c2.9 0 5.25 2.73 5.25 6.11 0 3.37-2.35 6.11-5.25 6.11s-5.26-2.74-5.26-6.11c0-3.38 2.36-6.11 5.26-6.11zm108.62-138.67c6.74 0 12.22 5.1 12.22 11.37s-5.48 11.37-12.22 11.37c-6.75 0-12.23-5.1-12.23-11.37s5.48-11.37 12.23-11.37z" transform="matrix(.7625 0 0 .38183 522.447 572.63)"/>
      <circle cx="2729.05" cy="2505.8" r="11.803" fill="#06d6a0" transform="matrix(.7625 0 0 .38183 522.447 572.63)"/>
      <circle cx="2729.05" cy="2505.8" r="11.803" fill="#06d6a0" transform="matrix(.7625 0 0 .38183 398.866 535.291)"/>
      <circle cx="2729.05" cy="2505.8" r="11.803" fill="#06d6a0" transform="matrix(.7625 0 0 .38183 324.599 549.721)"/>
      <circle cx="626.383" cy="4203.22" r="8.961" fill="#978ee1" transform="matrix(.67233 0 0 .33667 2005.53 70.39)"/>
      <circle cx="626.383" cy="4203.22" r="8.961" fill="#978ee1" transform="matrix(.67233 0 0 .33667 2025.68 121.706)"/>
      <circle cx="626.383" cy="4203.22" r="8.961" fill="#978ee1" transform="matrix(.95391 0 0 .47767 1798.41 -467.884)"/>
      <circle cx="626.383" cy="4203.22" r="8.961" fill="#978ee1" transform="matrix(1 0 0 .50075 2013.97 -597.075)"/>
      <circle cx="626.383" cy="4203.22" r="8.961" fill="#978ee1" transform="matrix(.71887 0 0 .35998 2216.66 28.185)"/>
      <circle cx="626.383" cy="4203.22" r="8.961" fill="#978ee1" transform="matrix(1.39513 0 0 .69861 1667.22 -1444.31)"/>
      <path fill="#5aede8" fill-opacity=".25" d="M784.17 2616.56c2.115-19.29-6.754-37.99-22.163-46.74-41.945-23.81-125.022-70.97-170.651-96.88-19.841-11.26-43.416-10.34-62.515 2.45-24.26 16.24-58.153 38.94-83.495 55.9-21.846 14.63-35.503 40.85-36.179 69.46l-2.945 124.74c-.509 21.56 10.173 41.47 27.351 51 41.797 23.17 118.452 65.67 147.979 82.04 7.573 4.19 16.463 4.12 23.978-.21 20.702-11.93 64.579-37.21 101.509-58.49 38.074-21.94 64.016-63.71 69.259-111.5l7.872-71.77z" transform="matrix(.58392 0 0 .25965 2076.81 920.611)"/>
      <g id="owl1" transform="matrix(.59493 0 0 .40218 -867.836 1399.1)">
        <path fill="#2c9e90" d="M427.025 131.061c39.466 43.538 63.524 101.298 63.524 164.633 0 135.37-109.904 245.274-245.275 245.274S-.001 431.064-.001 295.694c0-57.768 20.014-110.898 53.481-152.829L82.154 23.726s21.111 28.222 59.477 49.635c31.49-14.718 66.614-22.942 103.643-22.942 29.61 0 58.002 5.258 84.291 14.891C372.472 37.037 398.75 0 398.75 0l28.275 131.061z" transform="matrix(.27586 0 0 .20434 5448.32 393.485)"/>
        <path fill="#34b6a6" d="M62.87 459.603C94.453 387.389 164.285 337.15 245.274 337.15c80.989 0 150.821 50.239 182.403 122.453-44.912 49.94-110.017 81.365-182.403 81.365-72.387 0-137.491-31.425-182.404-81.365z" transform="matrix(.27586 0 0 .20434 5448.32 393.485)"/>
        <path fill="#604233" d="M564.142 777.347h100.095v100.095H564.142z" transform="scale(.27586 .20434) rotate(45 8588.145 24934.412)"/>
        <circle cx="1107.35" cy="613.196" r="101.822" fill="#fff" transform="matrix(.31754 0 0 .23522 5138.37 297.5)"/>
        <circle cx="1107.35" cy="613.196" r="101.822" fill="#fff" transform="matrix(.31754 0 0 .23522 5190.19 297.5)"/>
        <circle id="eyeLidR" cx="1107.35" cy="613.196" r="101.822" fill="#123e39" transform="matrix(.14786 0 0 .10953 5377.91 377.433)"/>
        <circle id="eyeLidL" cx="1107.35" cy="613.196" r="101.822" fill="#123e39" transform="matrix(.14786 0 0 .10953 5325.58 377.433)"/>
        <path fill="#8cd3cf" fill-rule="nonzero" d="M2715.62 2538.62c1.13.51.36 1.25-.02 1.86-7.79 12.57-19.47 22.71-32.93 28.78-6.02 2.72-12.54 4.51-19.17 4.65-12.78.26-25.38-4.91-36.12-12.35-6.84-4.73-12.97-10.51-18.03-17.08 0 0-.47-.56-.23-1.02.23-.47.89-.55 1.29-.12 10.89 14.21 26.58 24.98 43.65 28.19 2.93.56 5.92.87 8.91.84 11.37-.08 22.28-5.08 31.59-11.88 8-5.84 15.1-13.06 20.16-21.53 0 0 .31-.46.9-.34z" transform="matrix(1.28168 0 0 .9494 2103.38 -1964.5)"/>
        <circle cx="2661.65" cy="2686.71" r="17.592" fill="#8cd3cf" transform="matrix(.76568 0 0 .56717 3478.07 -1036.16)"/>
      </g>
      <g id="owl3">
        <g transform="matrix(-.10788 0 0 .05402 2720.692 1553.404)">
          <circle cx="743.669" cy="726.986" r="466.243" fill="#29c49c"/>
          <clipPath id="_clip2">
            <circle cx="743.669" cy="726.986" r="466.243"/>
          </clipPath>
          <g clip-path="url(#_clip2)">
            <circle cx="743.669" cy="726.986" r="466.243" fill="#4ad7b2" transform="matrix(.81697 0 0 .8524 136.112 583.534)"/>
          </g>
        </g>
        <circle cx="2661.65" cy="2686.71" r="17.592" fill="#9e4932" transform="matrix(.45552 0 0 .2281 1428.024 997.835)"/>
        <path fill="#9e4932" fill-rule="nonzero" d="M2596.15 2532.94c.47.14.67.65.88 1.11 8.06 17.05 23.59 30 40.97 37.62 9.21 4.03 19.17 6.57 29.19 5.77 25.64-2.02 49.33-18.6 60.05-42.7 0 0 .23-.38.56-.45.53-.1 1.11.24.85 1.07-5.2 11.69-13.33 21.99-23.59 29.5-12 8.78-26.74 14.01-41.51 14.31-11.33.23-22.52-3.82-32.73-9.28-14.31-7.64-26.91-19-34.19-33.16-.25-.48-.47-.91-.67-1.35-.06-.11-.11-.22-.17-.34-.05-.11-.1-.22-.16-.34-.46-.98-.67-1.82.52-1.76z" transform="matrix(.7625 0 0 .38183 610.689 622.548)"/>
        <use transform="matrix(-.145 .07261 .145 .07261 2609.55 1490.914)" xlink:href="#reuse-0"/>
        <path fill="#29c49c" d="M1425.68 126.274s-46.48 88.994-112.98 96.388C1237.26 231.05 1192.63 150 1192.63 150l-21.28 120.114 278.35 7.415-24.02-151.255z" transform="matrix(-.27858 0 0 .10269 3006.159 1549.344)"/>
        <circle cx="1107.35" cy="613.196" r="101.822" fill="#fff" transform="matrix(-.23606 0 0 .1182 2921.173 1514.073)"/>
        <circle cx="1107.35" cy="613.196" r="101.822" fill="#fff" transform="matrix(-.23606 0 0 .1182 2882.65 1514.073)"/>
        <circle cx="1107.35" cy="613.196" r="101.822" fill="#123e39" transform="matrix(-.10992 0 0 .05504 2746.554 1550.803)"/>
        <circle cx="1107.35" cy="613.196" r="101.822" fill="#123e39" transform="matrix(-.10992 0 0 .05504 2785.456 1550.803)"/>
      </g>
      <g id="owl2">
        <g transform="matrix(-.11106 0 0 .05561 2604.403 1504.646)">
          <circle cx="743.669" cy="726.986" r="466.243" fill="#099974"/>
          <clipPath id="_clip3">
            <circle cx="743.669" cy="726.986" r="466.243"/>
          </clipPath>
          <g clip-path="url(#_clip3)">
            <circle cx="743.669" cy="726.986" r="466.243" fill="#06d6a0" transform="matrix(.81697 0 0 .8524 136.112 583.534)"/>
          </g>
        </g>
        <circle cx="2661.65" cy="2686.71" r="17.592" fill="#dabe4b" transform="matrix(.59179 0 0 .29634 946.688 764.176)"/>
        <path fill="#dabe4b" fill-rule="nonzero" d="M2730.58 2538.62c1.12.48.45 1.15.11 1.69-3.38 5.33-8.45 9.51-13.71 13.25-8.45 6.01-17.75 10.77-27.46 14.45-8.38 3.19-17.19 5.72-26.01 5.9-5.79.11-11.55-1.02-17.17-2.49-14.79-3.87-29.1-10.27-41.21-19.23-4.08-3.02-7.91-6.39-11.03-10.41 0 0-.45-.5-.26-.96.2-.48.73-.78 1.33-.18 7.73 10.07 19.28 16.54 30.79 21.8 12.3 5.62 25.53 10.55 38.82 9.88 9.3-.47 18.36-3.33 27.04-6.87 10.39-4.24 20.4-9.63 28.98-16.76 3.41-2.83 6.63-5.95 8.91-9.73 0 0 .03-.47.87-.34z" transform="matrix(.7625 0 0 .38183 491.669 573.056)"/>
        <use transform="scale(-.2111 .10571) rotate(45 -22344.07 -7425.308)" xlink:href="#reuse-0"/>
        <path fill="#099974" d="M1425.68 126.274s-46.48 88.994-112.98 96.388C1237.26 231.05 1192.63 150 1192.63 150l-21.28 120.114 278.35 7.415-24.02-151.255z" transform="matrix(-.28679 0 0 .10571 2898.282 1500.467)"/>
        <circle cx="1107.35" cy="613.196" r="101.822" fill="#fff" transform="matrix(-.24301 0 0 .12169 2810.792 1464.156)"/>
        <circle cx="1107.35" cy="613.196" r="101.822" fill="#fff" transform="matrix(-.24301 0 0 .12169 2771.134 1464.156)"/>
        <circle cx="1107.35" cy="613.196" r="101.822" fill="#123e39" transform="matrix(-.11316 0 0 .05666 2627.094 1498.531)"/>
        <circle cx="1107.35" cy="613.196" r="101.822" fill="#123e39" transform="matrix(-.11316 0 0 .05666 2667.149 1498.531)"/>
      </g>
      <path fill="#422a8d" fill-rule="nonzero" d="M2454.6 2681.76c1.91.98 3.62 2.29 4.26 4.26.21.66.21 1.36.32 2.05v117.51h141.8l2.05.32c1.9.98 3.61 2.29 4.25 4.26.21.65.22 1.36.33 2.04v81.6c-.35 1.97-.21 2.65-1.56 4.26-2.43 2.9-7.6 3.03-10.14 0-1.35-1.61-1.21-2.29-1.55-4.26v-74.97h-141.8l-2.05-.32c-1.91-.98-3.62-2.29-4.25-4.26-.22-.66-.22-1.36-.33-2.05v-117.51H2316.2v74.05c-.44 2.82-1.99 5.46-4.57 6.3-.66.21-1.37.22-2.05.32H2172.9v31.56l-.4 2.27c-1 1.73-1.09 2.42-2.91 3.47-2.63 1.52-6.4.89-8.39-1.48-1.34-1.61-1.2-2.29-1.55-4.26v-38.18c.45-2.81 1.94-5.44 4.58-6.3.66-.22 1.37-.22 2.05-.33h136.67v-74.04l.33-2.05c.97-1.91 2.29-3.62 4.25-4.26.66-.21 1.37-.21 2.05-.32h142.98c.68.11 1.36.22 2.04.32z" transform="matrix(.7625 0 0 .38183 713.541 546.532)"/>
    </g>
  </g>
</svg>
