<svg xmlns="http://www.w3.org/2000/svg" fill-rule="evenodd" stroke-linejoin="round" stroke-miterlimit="2" clip-rule="evenodd" viewBox="0 0 103 61">
  <defs/>
  <g transform="matrix(1 0 0 1.99699 -3310 -1308.29)">
    <path id="square_root1" fill="#f9f9fc" fill-rule="nonzero" d="M2513.09 1028.11c.36.19.72.38 1.01.67.29.29.53.63.69 1 .08.19.12.39.18.59l3.29 15.66c2.15-7.36 4.31-14.69 6.49-22.03l.21-.71c.41-1.36 1.12-1.95 1.97-2.28.48-.18.62-.16 1.12-.2l37.48.09c.21.02.42.02.62.06 1.4.28 2.52 1.62 2.52 3.08-.01 1.44-1.1 2.79-2.54 3.08-.2.04-.41.04-.61.05l-35.14-.08c-3.2 10.81-6.4 21.62-9.48 32.46l-.09.32c-.07.19-.13.38-.22.56-.71 1.42-2.59 2.11-4.06 1.46-.73-.32-1.33-.93-1.64-1.66-.07-.18-.11-.38-.17-.57l-5.37-25.51h-7.89l-.61-.06c-.2-.06-.4-.1-.59-.18-1.33-.55-2.16-2.09-1.88-3.51.24-1.21 1.26-2.23 2.47-2.47.2-.04.41-.04.61-.06h10.44l.61.06c.19.06.38.12.58.18zm38.18 8.78l.01-2.37c0-.14 0-.18.02-.32.14-1.14 1.1-2.14 2.27-2.32.3-.04.37-.02.47-.02.14.01.18.01.32.03 1.14.17 2.11 1.15 2.25 2.33.01.14.01.18.01.32l-.09 23.68c0 .14 0 .18-.02.32-.15 1.25-1.31 2.31-2.58 2.34-1.42.04-2.7-1.22-2.74-2.68l.01-1.7c-.72.81-1.54 1.53-2.46 2.14-2.86 1.9-6.63 2.36-9.83 1.09-4.12-1.63-7.02-5.74-7.83-10.25-.75-4.13.15-8.58 2.65-11.92 2.1-2.82 5.38-4.75 8.93-4.79h.17c3.2.02 6.26 1.62 8.44 4.12zm-8.51 1.22c-2.66.02-4.94 2.35-5.87 4.66-1.33 3.32-.89 7.38 1.44 10.11 1.56 1.84 4.21 2.88 6.64 1.76 2.84-1.3 4.38-4.61 4.43-7.85.04-2.33-.66-4.71-2.22-6.51-1.1-1.25-2.66-2.16-4.38-2.17h-.04z" transform="matrix(1.44539 0 0 .72378 -300.247 -83.494)"/>
  </g>
</svg>
