<svg xmlns="http://www.w3.org/2000/svg" fill-rule="evenodd" stroke-linejoin="round" stroke-miterlimit="2" clip-rule="evenodd" viewBox="0 0 209 89">
  <defs/>
  <g transform="matrix(1 0 0 1.99699 -2669 -1479.29)">
    <path id="square_root2" fill="#f9f9fc" fill-rule="nonzero" d="M2485.49 1086.57c.61.39 1.17.85 1.47 1.5.1.21.15.45.22.67l3.16 15c2.13-7.3 4.28-14.61 6.45-21.91l.07-.24c.44-1.05 1.27-1.93 2.34-2.17.22-.04.44-.04.66-.07l64.37-.14c.25.03.5.03.75.09 2.17.53 3.24 3.7 1.34 5.39-.38.34-.84.58-1.33.7-.24.06-.5.06-.75.09l-62.03.14c-3.03 10.22-6.05 20.44-8.97 30.69l-.18.64-.18.63-.29.69c-.4.54-.47.73-1.04 1.09-1.26.81-3.12.55-4.11-.64-.43-.53-.43-.72-.65-1.35l-5.23-24.85h-7.63l-.75-.09c-.63-.23-.83-.24-1.33-.69-1.29-1.15-1.39-3.47 0-4.7.37-.34.83-.58 1.33-.7.24-.06.5-.06.75-.09h10.18l.71.08c.22.08.44.16.67.24zm61.42 26.79c-.39 1.68-2.66 2.74-4.13 1.43-.45-.4-.75-.97-.82-1.58-.01-.13-.01-.16-.01-.3l.08-23.11c.02-.5.07-.63.17-.89.33-.85 1.14-1.49 2.05-1.59.29-.04.36-.02.45-.02.5.05.63.11.88.22.78.36 1.35 1.13 1.46 2 .01.13.01.16.01.3l-.02 6.44c.74-.64 1.58-1.17 2.51-1.54 1-.4 2.07-.6 3.15-.59 3.05.03 5.93 1.86 7.58 4.54 2.88 4.69 2.1 11.58-2.38 15.08-2.33 1.83-5.62 2.38-8.41 1.24a8.76 8.76 0 01-2.57-1.63zm-32.37-17.26l.01-.39c.01-.47.06-.61.15-.87a2.55 2.55 0 012.11-1.62c.25-.03.3-.01.38-.01.47.04.61.09.86.2.82.36 1.42 1.17 1.5 2.06l.02.26-.07 16.46c-.04 1.39-1.3 2.57-2.64 2.5-1.08-.06-2.01-.9-2.29-1.94-.04.03-.07.06-.11.09-2.26 1.81-5.5 2.37-8.22 1.24-5.84-2.44-7.92-11.49-3.35-16.86 1.58-1.85 3.9-3.07 6.36-3.09.06-.01.06-.01.12 0 1.89.01 3.7.75 5.17 1.97zm13.68 5.79l.01-3.83c.01-.36.04-.47.12-.67.25-.74.95-1.31 1.74-1.4.19-.02.23-.01.29-.01.36.02.47.05.67.13.73.27 1.28.99 1.36 1.77v.2l-.01 3.83 3.81.01c1.36.04 2.44 1.52 1.95 2.82-.29.8-1.11 1.35-1.96 1.37l-3.82-.02-.01 3.75c-.04 1.35-1.53 2.43-2.82 1.95-.8-.29-1.35-1.11-1.37-1.97l.02-3.74-3.77-.02c-1.34-.03-2.44-1.49-1.95-2.82.3-.79 1.11-1.34 1.97-1.36l3.77.01zm24.38-2.75c-2.49.03-4.31 2.9-4.31 5.73 0 3.16 2.38 6.86 5.65 5.45 3.28-1.43 4.02-6.78 1.57-9.69-.7-.83-1.71-1.45-2.81-1.48-.03 0-.07-.01-.1-.01zm-43.31 0c-3.37.04-5.27 5.7-2.74 9 .82 1.08 2.22 1.85 3.65 1.39 3.21-1.02 4.09-6.2 1.75-9.01-.64-.77-1.57-1.35-2.59-1.37-.03-.01-.05-.01-.07-.01z" transform="matrix(2.16239 0 0 1.08282 -2673.61 -427.442)"/>
  </g>
</svg>
